<?xml version="1.0" encoding="UTF-8" standalone="no"?>
<!-- Created by diasvg.py -->
<svg width="16.550cm" height="10.104cm" viewBox="2.800 6.903 19.350 17.007"
 xmlns="http://www.w3.org/2000/svg"
 xmlns:xlink="http://www.w3.org/1999/xlink">
<line x1="2.800" y1="10.800" x2="19.350" y2="10.750" stroke="#000000" stroke-width="0.100" />
<line x1="4.264" y1="10.796" x2="4.276" y2="14.783" stroke="#000000" stroke-width="0.100" />
<line x1="6.764" y1="10.788" x2="6.776" y2="14.783" stroke="#000000" stroke-width="0.100" />
<line x1="9.264" y1="10.781" x2="9.276" y2="14.783" stroke="#000000" stroke-width="0.100" />
<line x1="11.714" y1="10.773" x2="11.726" y2="14.833" stroke="#000000" stroke-width="0.100" />
<line x1="15.409" y1="10.762" x2="15.400" y2="7.906" stroke="#000000" stroke-width="0.100" />
<path stroke="none" fill="#B7B79D" stroke-width="0.001" d="M 3.145,14.945 L 5.143,14.945 L 5.143,15.315 L 3.145,15.315 L 3.145,14.945 "/>
<path stroke="#494936" fill="none" stroke-width="0.001"  d="M 3.145,14.945 L 5.143,14.945 L 5.143,15.315 L 3.145,15.315 L 3.145,14.945 "/>
<path stroke="none" fill="#C9C9B6" stroke-width="0.001" d="M 3.145,14.945 L 3.357,14.744 L 5.355,14.744 L 5.143,14.945 L 3.145,14.945 "/>
<path stroke="#494936" fill="none" stroke-width="0.001"  d="M 3.145,14.945 L 3.357,14.744 L 5.355,14.744 L 5.143,14.945 L 3.145,14.945 "/>
<path stroke="#000000" fill="none" stroke-width="0.106"  d="M 5.031,15.113 L 4.552,15.113 "/>
<path stroke="none" fill="#7A7A5A" stroke-width="0.001" d="M 5.143,15.315 L 5.355,15.102 L 5.355,14.744 L 5.143,14.945 L 5.143,15.315 "/>
<path stroke="#494936" fill="none" stroke-width="0.001"  d="M 5.143,15.315 L 5.355,15.102 L 5.355,14.744 L 5.143,14.945 L 5.143,15.315 "/>
<path stroke="none" fill="#C9C9B6" stroke-width="0.001" d="M 3.156,15.549 L 3.379,15.270 L 4.920,15.270 L 4.697,15.549 L 3.156,15.549 "/>
<path stroke="#494936" fill="none" stroke-width="0.001"  d="M 3.156,15.549 L 3.379,15.270 L 4.920,15.270 L 4.697,15.549 L 3.156,15.549 "/>
<path stroke="none" fill="#7A7A5A" stroke-width="0.001" d="M 4.697,15.605 L 4.920,15.370 L 4.920,15.270 L 4.697,15.549 L 4.697,15.605 "/>
<path stroke="#494936" fill="none" stroke-width="0.001"  d="M 4.697,15.605 L 4.920,15.370 L 4.920,15.270 L 4.697,15.549 L 4.697,15.605 "/>
<path stroke="none" fill="#B7B79D" stroke-width="0.001" d="M 3.156,15.549 L 4.697,15.549 L 4.697,15.605 L 3.156,15.605 L 3.156,15.549 "/>
<path stroke="#494936" fill="none" stroke-width="0.001"  d="M 3.156,15.549 L 4.697,15.549 L 4.697,15.605 L 3.156,15.605 L 3.156,15.549 "/>
<path stroke="none" fill="#000000" stroke-width="0.001" d="M 3.446,14.901 L 3.614,14.744 L 5.031,14.744 L 4.876,14.901 L 3.446,14.901 "/>
<path stroke="#000000" fill="none" stroke-width="0.001"  d="M 3.446,14.901 L 3.614,14.744 L 5.031,14.744 L 4.876,14.901 L 3.446,14.901 "/>
<path stroke="none" fill="#C9C9B6" stroke-width="0.001" d="M 3.435,13.750 L 3.592,13.605 L 5.010,13.605 L 4.853,13.750 L 3.435,13.750 "/>
<path stroke="#494936" fill="none" stroke-width="0.001"  d="M 3.435,13.750 L 3.592,13.605 L 5.010,13.605 L 4.853,13.750 L 3.435,13.750 "/>
<path stroke="none" fill="#B7B79D" stroke-width="0.001" d="M 3.435,13.750 L 4.864,13.750 L 4.864,14.878 L 3.435,14.878 L 3.435,13.750 "/>
<path stroke="#494936" fill="none" stroke-width="0.001"  d="M 3.435,13.750 L 4.864,13.750 L 4.864,14.878 L 3.435,14.878 L 3.435,13.750 "/>
<path stroke="none" fill="#FFFFFF" stroke-width="0.001" d="M 3.558,13.895 L 4.741,13.895 L 4.741,14.766 L 3.558,14.766 L 3.558,13.895 "/>
<path stroke="#494936" fill="none" stroke-width="0.001"  d="M 3.558,13.895 L 4.741,13.895 L 4.741,14.766 L 3.558,14.766 L 3.558,13.895 "/>
<path stroke="none" fill="#7A7A5A" stroke-width="0.001" d="M 4.853,14.867 L 5.010,14.711 L 5.010,13.605 L 4.853,13.750 L 4.853,14.867 "/>
<path stroke="#494936" fill="none" stroke-width="0.001"  d="M 4.853,14.867 L 5.010,14.711 L 5.010,13.605 L 4.853,13.750 L 4.853,14.867 "/>
<path stroke="none" fill="#B7B79D" stroke-width="0.001" d="M 5.645,14.945 L 7.643,14.945 L 7.643,15.315 L 5.645,15.315 L 5.645,14.945 "/>
<path stroke="#494936" fill="none" stroke-width="0.001"  d="M 5.645,14.945 L 7.643,14.945 L 7.643,15.315 L 5.645,15.315 L 5.645,14.945 "/>
<path stroke="none" fill="#C9C9B6" stroke-width="0.001" d="M 5.645,14.945 L 5.857,14.744 L 7.855,14.744 L 7.643,14.945 L 5.645,14.945 "/>
<path stroke="#494936" fill="none" stroke-width="0.001"  d="M 5.645,14.945 L 5.857,14.744 L 7.855,14.744 L 7.643,14.945 L 5.645,14.945 "/>
<path stroke="#000000" fill="none" stroke-width="0.106"  d="M 7.531,15.113 L 7.052,15.113 "/>
<path stroke="none" fill="#7A7A5A" stroke-width="0.001" d="M 7.643,15.315 L 7.855,15.102 L 7.855,14.744 L 7.643,14.945 L 7.643,15.315 "/>
<path stroke="#494936" fill="none" stroke-width="0.001"  d="M 7.643,15.315 L 7.855,15.102 L 7.855,14.744 L 7.643,14.945 L 7.643,15.315 "/>
<path stroke="none" fill="#C9C9B6" stroke-width="0.001" d="M 5.656,15.549 L 5.879,15.270 L 7.420,15.270 L 7.197,15.549 L 5.656,15.549 "/>
<path stroke="#494936" fill="none" stroke-width="0.001"  d="M 5.656,15.549 L 5.879,15.270 L 7.420,15.270 L 7.197,15.549 L 5.656,15.549 "/>
<path stroke="none" fill="#7A7A5A" stroke-width="0.001" d="M 7.197,15.605 L 7.420,15.370 L 7.420,15.270 L 7.197,15.549 L 7.197,15.605 "/>
<path stroke="#494936" fill="none" stroke-width="0.001"  d="M 7.197,15.605 L 7.420,15.370 L 7.420,15.270 L 7.197,15.549 L 7.197,15.605 "/>
<path stroke="none" fill="#B7B79D" stroke-width="0.001" d="M 5.656,15.549 L 7.197,15.549 L 7.197,15.605 L 5.656,15.605 L 5.656,15.549 "/>
<path stroke="#494936" fill="none" stroke-width="0.001"  d="M 5.656,15.549 L 7.197,15.549 L 7.197,15.605 L 5.656,15.605 L 5.656,15.549 "/>
<path stroke="none" fill="#000000" stroke-width="0.001" d="M 5.946,14.901 L 6.114,14.744 L 7.531,14.744 L 7.376,14.901 L 5.946,14.901 "/>
<path stroke="#000000" fill="none" stroke-width="0.001"  d="M 5.946,14.901 L 6.114,14.744 L 7.531,14.744 L 7.376,14.901 L 5.946,14.901 "/>
<path stroke="none" fill="#C9C9B6" stroke-width="0.001" d="M 5.935,13.750 L 6.092,13.605 L 7.510,13.605 L 7.353,13.750 L 5.935,13.750 "/>
<path stroke="#494936" fill="none" stroke-width="0.001"  d="M 5.935,13.750 L 6.092,13.605 L 7.510,13.605 L 7.353,13.750 L 5.935,13.750 "/>
<path stroke="none" fill="#B7B79D" stroke-width="0.001" d="M 5.935,13.750 L 7.364,13.750 L 7.364,14.878 L 5.935,14.878 L 5.935,13.750 "/>
<path stroke="#494936" fill="none" stroke-width="0.001"  d="M 5.935,13.750 L 7.364,13.750 L 7.364,14.878 L 5.935,14.878 L 5.935,13.750 "/>
<path stroke="none" fill="#FFFFFF" stroke-width="0.001" d="M 6.058,13.895 L 7.241,13.895 L 7.241,14.766 L 6.058,14.766 L 6.058,13.895 "/>
<path stroke="#494936" fill="none" stroke-width="0.001"  d="M 6.058,13.895 L 7.241,13.895 L 7.241,14.766 L 6.058,14.766 L 6.058,13.895 "/>
<path stroke="none" fill="#7A7A5A" stroke-width="0.001" d="M 7.353,14.867 L 7.510,14.711 L 7.510,13.605 L 7.353,13.750 L 7.353,14.867 "/>
<path stroke="#494936" fill="none" stroke-width="0.001"  d="M 7.353,14.867 L 7.510,14.711 L 7.510,13.605 L 7.353,13.750 L 7.353,14.867 "/>
<path stroke="none" fill="#B7B79D" stroke-width="0.001" d="M 8.145,14.945 L 10.143,14.945 L 10.143,15.315 L 8.145,15.315 L 8.145,14.945 "/>
<path stroke="#494936" fill="none" stroke-width="0.001"  d="M 8.145,14.945 L 10.143,14.945 L 10.143,15.315 L 8.145,15.315 L 8.145,14.945 "/>
<path stroke="none" fill="#C9C9B6" stroke-width="0.001" d="M 8.145,14.945 L 8.357,14.744 L 10.355,14.744 L 10.143,14.945 L 8.145,14.945 "/>
<path stroke="#494936" fill="none" stroke-width="0.001"  d="M 8.145,14.945 L 8.357,14.744 L 10.355,14.744 L 10.143,14.945 L 8.145,14.945 "/>
<path stroke="#000000" fill="none" stroke-width="0.106"  d="M 10.031,15.113 L 9.552,15.113 "/>
<path stroke="none" fill="#7A7A5A" stroke-width="0.001" d="M 10.143,15.315 L 10.355,15.102 L 10.355,14.744 L 10.143,14.945 L 10.143,15.315 "/>
<path stroke="#494936" fill="none" stroke-width="0.001"  d="M 10.143,15.315 L 10.355,15.102 L 10.355,14.744 L 10.143,14.945 L 10.143,15.315 "/>
<path stroke="none" fill="#C9C9B6" stroke-width="0.001" d="M 8.156,15.549 L 8.379,15.270 L 9.920,15.270 L 9.697,15.549 L 8.156,15.549 "/>
<path stroke="#494936" fill="none" stroke-width="0.001"  d="M 8.156,15.549 L 8.379,15.270 L 9.920,15.270 L 9.697,15.549 L 8.156,15.549 "/>
<path stroke="none" fill="#7A7A5A" stroke-width="0.001" d="M 9.697,15.605 L 9.920,15.370 L 9.920,15.270 L 9.697,15.549 L 9.697,15.605 "/>
<path stroke="#494936" fill="none" stroke-width="0.001"  d="M 9.697,15.605 L 9.920,15.370 L 9.920,15.270 L 9.697,15.549 L 9.697,15.605 "/>
<path stroke="none" fill="#B7B79D" stroke-width="0.001" d="M 8.156,15.549 L 9.697,15.549 L 9.697,15.605 L 8.156,15.605 L 8.156,15.549 "/>
<path stroke="#494936" fill="none" stroke-width="0.001"  d="M 8.156,15.549 L 9.697,15.549 L 9.697,15.605 L 8.156,15.605 L 8.156,15.549 "/>
<path stroke="none" fill="#000000" stroke-width="0.001" d="M 8.446,14.901 L 8.614,14.744 L 10.031,14.744 L 9.876,14.901 L 8.446,14.901 "/>
<path stroke="#000000" fill="none" stroke-width="0.001"  d="M 8.446,14.901 L 8.614,14.744 L 10.031,14.744 L 9.876,14.901 L 8.446,14.901 "/>
<path stroke="none" fill="#C9C9B6" stroke-width="0.001" d="M 8.435,13.750 L 8.592,13.605 L 10.010,13.605 L 9.853,13.750 L 8.435,13.750 "/>
<path stroke="#494936" fill="none" stroke-width="0.001"  d="M 8.435,13.750 L 8.592,13.605 L 10.010,13.605 L 9.853,13.750 L 8.435,13.750 "/>
<path stroke="none" fill="#B7B79D" stroke-width="0.001" d="M 8.435,13.750 L 9.864,13.750 L 9.864,14.878 L 8.435,14.878 L 8.435,13.750 "/>
<path stroke="#494936" fill="none" stroke-width="0.001"  d="M 8.435,13.750 L 9.864,13.750 L 9.864,14.878 L 8.435,14.878 L 8.435,13.750 "/>
<path stroke="none" fill="#FFFFFF" stroke-width="0.001" d="M 8.558,13.895 L 9.741,13.895 L 9.741,14.766 L 8.558,14.766 L 8.558,13.895 "/>
<path stroke="#494936" fill="none" stroke-width="0.001"  d="M 8.558,13.895 L 9.741,13.895 L 9.741,14.766 L 8.558,14.766 L 8.558,13.895 "/>
<path stroke="none" fill="#7A7A5A" stroke-width="0.001" d="M 9.853,14.867 L 10.010,14.711 L 10.010,13.605 L 9.853,13.750 L 9.853,14.867 "/>
<path stroke="#494936" fill="none" stroke-width="0.001"  d="M 9.853,14.867 L 10.010,14.711 L 10.010,13.605 L 9.853,13.750 L 9.853,14.867 "/>
<path stroke="none" fill="#B7B79D" stroke-width="0.001" d="M 10.595,14.995 L 12.593,14.995 L 12.593,15.365 L 10.595,15.365 L 10.595,14.995 "/>
<path stroke="#494936" fill="none" stroke-width="0.001"  d="M 10.595,14.995 L 12.593,14.995 L 12.593,15.365 L 10.595,15.365 L 10.595,14.995 "/>
<path stroke="none" fill="#C9C9B6" stroke-width="0.001" d="M 10.595,14.995 L 10.807,14.794 L 12.805,14.794 L 12.593,14.995 L 10.595,14.995 "/>
<path stroke="#494936" fill="none" stroke-width="0.001"  d="M 10.595,14.995 L 10.807,14.794 L 12.805,14.794 L 12.593,14.995 L 10.595,14.995 "/>
<path stroke="#000000" fill="none" stroke-width="0.106"  d="M 12.481,15.163 L 12.002,15.163 "/>
<path stroke="none" fill="#7A7A5A" stroke-width="0.001" d="M 12.593,15.365 L 12.805,15.152 L 12.805,14.794 L 12.593,14.995 L 12.593,15.365 "/>
<path stroke="#494936" fill="none" stroke-width="0.001"  d="M 12.593,15.365 L 12.805,15.152 L 12.805,14.794 L 12.593,14.995 L 12.593,15.365 "/>
<path stroke="none" fill="#C9C9B6" stroke-width="0.001" d="M 10.606,15.599 L 10.829,15.320 L 12.370,15.320 L 12.147,15.599 L 10.606,15.599 "/>
<path stroke="#494936" fill="none" stroke-width="0.001"  d="M 10.606,15.599 L 10.829,15.320 L 12.370,15.320 L 12.147,15.599 L 10.606,15.599 "/>
<path stroke="none" fill="#7A7A5A" stroke-width="0.001" d="M 12.147,15.655 L 12.370,15.420 L 12.370,15.320 L 12.147,15.599 L 12.147,15.655 "/>
<path stroke="#494936" fill="none" stroke-width="0.001"  d="M 12.147,15.655 L 12.370,15.420 L 12.370,15.320 L 12.147,15.599 L 12.147,15.655 "/>
<path stroke="none" fill="#B7B79D" stroke-width="0.001" d="M 10.606,15.599 L 12.147,15.599 L 12.147,15.655 L 10.606,15.655 L 10.606,15.599 "/>
<path stroke="#494936" fill="none" stroke-width="0.001"  d="M 10.606,15.599 L 12.147,15.599 L 12.147,15.655 L 10.606,15.655 L 10.606,15.599 "/>
<path stroke="none" fill="#000000" stroke-width="0.001" d="M 10.896,14.951 L 11.064,14.794 L 12.481,14.794 L 12.326,14.951 L 10.896,14.951 "/>
<path stroke="#000000" fill="none" stroke-width="0.001"  d="M 10.896,14.951 L 11.064,14.794 L 12.481,14.794 L 12.326,14.951 L 10.896,14.951 "/>
<path stroke="none" fill="#C9C9B6" stroke-width="0.001" d="M 10.885,13.800 L 11.042,13.655 L 12.460,13.655 L 12.303,13.800 L 10.885,13.800 "/>
<path stroke="#494936" fill="none" stroke-width="0.001"  d="M 10.885,13.800 L 11.042,13.655 L 12.460,13.655 L 12.303,13.800 L 10.885,13.800 "/>
<path stroke="none" fill="#B7B79D" stroke-width="0.001" d="M 10.885,13.800 L 12.314,13.800 L 12.314,14.928 L 10.885,14.928 L 10.885,13.800 "/>
<path stroke="#494936" fill="none" stroke-width="0.001"  d="M 10.885,13.800 L 12.314,13.800 L 12.314,14.928 L 10.885,14.928 L 10.885,13.800 "/>
<path stroke="none" fill="#FFFFFF" stroke-width="0.001" d="M 11.008,13.945 L 12.191,13.945 L 12.191,14.816 L 11.008,14.816 L 11.008,13.945 "/>
<path stroke="#494936" fill="none" stroke-width="0.001"  d="M 11.008,13.945 L 12.191,13.945 L 12.191,14.816 L 11.008,14.816 L 11.008,13.945 "/>
<path stroke="none" fill="#7A7A5A" stroke-width="0.001" d="M 12.303,14.917 L 12.460,14.761 L 12.460,13.655 L 12.303,13.800 L 12.303,14.917 "/>
<path stroke="#494936" fill="none" stroke-width="0.001"  d="M 12.303,14.917 L 12.460,14.761 L 12.460,13.655 L 12.303,13.800 L 12.303,14.917 "/>
<path stroke="none" fill="#B7B79D" stroke-width="0.001" d="M 14.779,7.053 L 14.779,8.905 L 15.873,8.905 L 15.873,7.053 L 14.779,7.053 "/>
<path stroke="#494936" fill="none" stroke-width="0.001"  d="M 14.779,7.053 L 14.779,8.905 L 15.873,8.905 L 15.873,7.053 L 14.779,7.053 "/>
<path stroke="none" fill="#C9C9B6" stroke-width="0.001" d="M 14.779,7.053 L 14.927,6.905 L 16.021,6.905 L 15.873,7.053 L 14.779,7.053 "/>
<path stroke="#494936" fill="none" stroke-width="0.001"  d="M 14.779,7.053 L 14.927,6.905 L 16.014,6.905 "/>
<path stroke="#494936" fill="none" stroke-width="0.001"  d="M 16.014,6.912 L 15.873,7.053 L 14.779,7.053 "/>
<path stroke="none" fill="#C9C9B6" stroke-width="0.001" d="M 14.846,7.161 L 15.346,7.161 L 15.346,7.404 L 14.846,7.404 L 14.846,7.161 "/>
<path stroke="#626248" fill="none" stroke-width="0.001"  d="M 14.846,7.161 L 15.346,7.161 L 15.346,7.404 L 14.846,7.404 L 14.846,7.161 "/>
<path stroke="#ECECE7" fill="none" stroke-width="0.030"  d="M 14.914,7.283 L 15.264,7.283 "/>
<path stroke="none" fill="#7A7A5A" stroke-width="0.001" d="M 15.873,8.905 L 16.021,8.755 L 16.021,6.905 L 15.873,7.053 L 15.873,8.905 "/>
<path stroke="#494936" fill="none" stroke-width="0.001"  d="M 15.873,8.905 L 16.014,8.763 "/>
<path stroke="#494936" fill="none" stroke-width="0.001"  d="M 16.014,6.912 L 15.873,7.053 L 15.873,8.905 "/>
<path stroke="#ECECE7" fill="none" stroke-width="0.030"  d="M 14.793,8.782 L 15.873,8.782 "/>
<path stroke="#000000" fill="none" stroke-width="0.030"  d="M 14.793,7.796 L 15.873,7.796 "/>
<path stroke="#494936" fill="none" stroke-width="0.030"  d="M 14.779,8.769 L 15.872,8.769 "/>
<path stroke="#000000" fill="none" stroke-width="0.030"  d="M 14.779,7.783 L 15.872,7.783 "/>
<path stroke="#ECECE7" fill="none" stroke-width="0.001"  d="M 14.846,7.391 L 14.846,7.161 L 15.332,7.161 "/>
<rect x="4.800" y="10.410" width="6.563" height="0.748" fill="#FFFFFF" stroke="none" stroke-width="0"/>
<text x="4.800" y="11.005"  fill="#000000" text-anchor="start" font-size="0.80" font-family="sans" font-style="normal" font-weight="400">
High Speed Network</text>
<text x="6.100" y="7.805"  fill="#000000" text-anchor="start" font-size="0.80" font-family="sans" font-style="normal" font-weight="400">
File Server: Site Repository</text>
<text x="5.350" y="16.855"  fill="#000000" text-anchor="start" font-size="0.80" font-family="sans" font-style="normal" font-weight="400">
Workstations</text>
</svg>