<?xml version="1.0" encoding="UTF-8" standalone="no"?>
<!DOCTYPE svg PUBLIC "-//W3C//DTD SVG 1.0//EN" "http://www.w3.org/TR/2001/PR-SVG-20010719/DTD/svg10.dtd">
<svg width="37cm" height="31cm" viewBox="-99 30 732 608" xmlns="http://www.w3.org/2000/svg" xmlns:xlink="http://www.w3.org/1999/xlink">
  <g>
    <rect style="fill: #ffffff" x="-98" y="31" width="730" height="606"/>
    <rect style="fill: none; fill-opacity:0; stroke-width: 2; stroke: #000000" x="-98" y="31" width="730" height="606"/>
    <text font-size="12.8" style="fill: #000000;text-anchor:middle;font-family:sans-serif;font-style:normal;font-weight:normal" x="267" y="337.9">
      <tspan x="267" y="337.9"></tspan>
    </text>
  </g>
  <g>
    <rect style="fill: #ffffff" x="40" y="100" width="560" height="20"/>
    <rect style="fill: none; fill-opacity:0; stroke-width: 2; stroke: #000000" x="40" y="100" width="560" height="20"/>
  </g>
  <text font-size="12.8" style="fill: #000000;text-anchor:start;font-family:sans-serif;font-style:normal;font-weight:normal" x="305" y="114">
    <tspan x="305" y="114">20%</tspan>
  </text>
  <line style="fill: none; fill-opacity:0; stroke-width: 2; stroke: #000000" x1="165" y1="118" x2="164" y2="99"/>
  <g>
    <g>
      <rect style="fill: #ffffff" x="39" y="161" width="560" height="178"/>
      <rect style="fill: none; fill-opacity:0; stroke-width: 2; stroke: #000000" x="39" y="161" width="560" height="178"/>
    </g>
    <g>
      <rect style="fill: #ffffff" x="39" y="160" width="138" height="26"/>
      <rect style="fill: none; fill-opacity:0; stroke-width: 2; stroke: #000000" x="39" y="160" width="138" height="26"/>
    </g>
    <text font-size="12.8" style="fill: #000000;text-anchor:start;font-family:sans-serif;font-style:normal;font-weight:normal" x="94" y="177">
      <tspan x="94" y="177">Task</tspan>
    </text>
    <g>
      <rect style="fill: #ffffff" x="176" y="161" width="93" height="25"/>
      <rect style="fill: none; fill-opacity:0; stroke-width: 2; stroke: #000000" x="176" y="161" width="93" height="25"/>
    </g>
    <text font-size="12.8" style="fill: #000000;text-anchor:start;font-family:sans-serif;font-style:normal;font-weight:normal" x="211.5" y="177.5">
      <tspan x="211.5" y="177.5">Site</tspan>
    </text>
    <g>
      <rect style="fill: #ffffff" x="270" y="161" width="86" height="25"/>
      <rect style="fill: none; fill-opacity:0; stroke-width: 2; stroke: #000000" x="270" y="161" width="86" height="25"/>
    </g>
    <text font-size="12.8" style="fill: #000000;text-anchor:start;font-family:sans-serif;font-style:normal;font-weight:normal" x="289" y="177.5">
      <tspan x="289" y="177.5">Priority</tspan>
    </text>
    <g>
      <rect style="fill: #ffffff" x="356" y="161" width="112" height="24"/>
      <rect style="fill: none; fill-opacity:0; stroke-width: 2; stroke: #000000" x="356" y="161" width="112" height="24"/>
    </g>
    <text font-size="12.8" style="fill: #000000;text-anchor:start;font-family:sans-serif;font-style:normal;font-weight:normal" x="381" y="177">
      <tspan x="381" y="177">Category</tspan>
    </text>
    <g>
      <rect style="fill: #ffffff" x="468" y="161" width="131" height="24"/>
      <rect style="fill: none; fill-opacity:0; stroke-width: 2; stroke: #000000" x="468" y="161" width="131" height="24"/>
    </g>
    <text font-size="12.8" style="fill: #000000;text-anchor:start;font-family:sans-serif;font-style:normal;font-weight:normal" x="513.5" y="177">
      <tspan x="513.5" y="177">Status</tspan>
    </text>
    <line style="fill: none; fill-opacity:0; stroke-width: 2; stroke: #000000" x1="177" y1="186" x2="177" y2="340"/>
    <line style="fill: none; fill-opacity:0; stroke-width: 2; stroke: #000000" x1="269" y1="186" x2="270" y2="338"/>
    <line style="fill: none; fill-opacity:0; stroke-width: 2; stroke: #000000" x1="356" y1="186" x2="356" y2="339"/>
    <line style="fill: none; fill-opacity:0; stroke-width: 2; stroke: #000000" x1="468" y1="185" x2="469" y2="341"/>
  </g>
  <text font-size="12.8" style="fill: #000000;text-anchor:start;font-family:sans-serif;font-style:normal;font-weight:normal" x="43" y="149">
    <tspan x="43" y="149">Your Tasks</tspan>
  </text>
  <text font-size="12.8" style="fill: #000000;text-anchor:start;font-family:sans-serif;font-style:normal;font-weight:normal" x="572" y="57">
    <tspan x="572" y="57">Help</tspan>
  </text>
  <g>
    <rect style="fill: #ffffff" x="40.8" y="382.6" width="560" height="178"/>
    <rect style="fill: none; fill-opacity:0; stroke-width: 2; stroke: #000000" x="40.8" y="382.6" width="560" height="178"/>
  </g>
  <g>
    <rect style="fill: #ffffff" x="40.8" y="381.6" width="138" height="26"/>
    <rect style="fill: none; fill-opacity:0; stroke-width: 2; stroke: #000000" x="40.8" y="381.6" width="138" height="26"/>
  </g>
  <text font-size="12.8" style="fill: #000000;text-anchor:start;font-family:sans-serif;font-style:normal;font-weight:normal" x="95.8" y="398.6">
    <tspan x="95.8" y="398.6">Task</tspan>
  </text>
  <g>
    <rect style="fill: #ffffff" x="177.8" y="382.6" width="81.2" height="25"/>
    <rect style="fill: none; fill-opacity:0; stroke-width: 2; stroke: #000000" x="177.8" y="382.6" width="81.2" height="25"/>
  </g>
  <text font-size="12.8" style="fill: #000000;text-anchor:start;font-family:sans-serif;font-style:normal;font-weight:normal" x="213.3" y="399.1">
    <tspan x="213.3" y="399.1">Site</tspan>
  </text>
  <g>
    <rect style="fill: #ffffff" x="257.8" y="382.6" width="86" height="25"/>
    <rect style="fill: none; fill-opacity:0; stroke-width: 2; stroke: #000000" x="257.8" y="382.6" width="86" height="25"/>
  </g>
  <text font-size="12.8" style="fill: #000000;text-anchor:start;font-family:sans-serif;font-style:normal;font-weight:normal" x="278.8" y="399.1">
    <tspan x="278.8" y="399.1">Priority</tspan>
  </text>
  <g>
    <rect style="fill: #ffffff" x="344.8" y="383.6" width="74.2" height="24"/>
    <rect style="fill: none; fill-opacity:0; stroke-width: 2; stroke: #000000" x="344.8" y="383.6" width="74.2" height="24"/>
  </g>
  <text font-size="12.8" style="fill: #000000;text-anchor:start;font-family:sans-serif;font-style:normal;font-weight:normal" x="354.8" y="399.6">
    <tspan x="354.8" y="399.6">Category</tspan>
  </text>
  <g>
    <rect style="fill: #ffffff" x="512" y="382.6" width="88.8" height="24"/>
    <rect style="fill: none; fill-opacity:0; stroke-width: 2; stroke: #000000" x="512" y="382.6" width="88.8" height="24"/>
  </g>
  <text font-size="12.8" style="fill: #000000;text-anchor:start;font-family:sans-serif;font-style:normal;font-weight:normal" x="545.3" y="396.6">
    <tspan x="545.3" y="396.6">Status</tspan>
  </text>
  <line style="fill: none; fill-opacity:0; stroke-width: 2; stroke: #000000" x1="178.8" y1="407.6" x2="178.8" y2="561.6"/>
  <line style="fill: none; fill-opacity:0; stroke-width: 2; stroke: #000000" x1="259" y1="407.6" x2="258" y2="560"/>
  <line style="fill: none; fill-opacity:0; stroke-width: 2; stroke: #000000" x1="343.8" y1="407.6" x2="343" y2="560"/>
  <line style="fill: none; fill-opacity:0; stroke-width: 2; stroke: #000000" x1="510.8" y1="405.6" x2="511.8" y2="561.6"/>
  <text font-size="12.8" style="fill: #000000;text-anchor:start;font-family:sans-serif;font-style:normal;font-weight:normal" x="47" y="365">
    <tspan x="47" y="365">Team Tasks</tspan>
  </text>
  <line style="fill: none; fill-opacity:0; stroke-width: 2; stroke: #000000" x1="419" y1="407.6" x2="417" y2="559"/>
  <g>
    <rect style="fill: #ffffff" x="418" y="383" width="95" height="24"/>
    <rect style="fill: none; fill-opacity:0; stroke-width: 2; stroke: #000000" x="418" y="383" width="95" height="24"/>
  </g>
  <text font-size="12.8" style="fill: #000000;text-anchor:start;font-family:sans-serif;font-style:normal;font-weight:normal" x="434" y="400">
    <tspan x="434" y="400">Assignee</tspan>
  </text>
  <g>
    <rect style="fill: #ffffff" x="-86" y="53" width="116" height="83"/>
    <rect style="fill: none; fill-opacity:0; stroke-width: 2; stroke: #000000" x="-86" y="53" width="116" height="83"/>
  </g>
  <text font-size="12.8" style="fill: #000000;text-anchor:start;font-family:sans-serif;font-style:normal;font-weight:normal" x="-48" y="98">
    <tspan x="-48" y="98">LOGO</tspan>
  </text>
  <g>
    <rect style="fill: #ffffff" x="-85" y="152" width="114" height="418"/>
    <rect style="fill: none; fill-opacity:0; stroke-width: 2; stroke: #000000" x="-85" y="152" width="114" height="418"/>
  </g>
  <text font-size="12.8" style="fill: #000000;text-anchor:start;font-family:sans-serif;font-style:normal;font-weight:normal" x="-63" y="359">
    <tspan x="-63" y="359">Navigation</tspan>
  </text>
</svg>
