<?xml version="1.0" encoding="UTF-8" standalone="no"?>
<!DOCTYPE svg PUBLIC "-//W3C//DTD SVG 1.0//EN" "http://www.w3.org/TR/2001/PR-SVG-20010719/DTD/svg10.dtd">
<svg width="30cm" height="16cm" viewBox="26 46 590 313" xmlns="http://www.w3.org/2000/svg" xmlns:xlink="http://www.w3.org/1999/xlink">
  <g>
    <ellipse style="fill: #ffffff" cx="80.9327" cy="87.4664" rx="48.0673" ry="28.5336"/>
    <ellipse style="fill: none; fill-opacity:0; stroke-width: 2; stroke: #000000" cx="80.9327" cy="87.4664" rx="48.0673" ry="28.5336"/>
    <text font-size="12.7998" style="fill: #000000;text-anchor:middle;font-family:sans-serif;font-style:normal;font-weight:normal" x="80.9327" y="91.3664">
      <tspan x="80.9327" y="91.3664">Start Task</tspan>
    </text>
  </g>
  <text font-size="12.7998" style="fill: #000000;text-anchor:start;font-family:sans-serif;font-style:normal;font-weight:normal" x="526" y="86">
    <tspan x="526" y="86"></tspan>
  </text>
  <g>
    <line style="fill: none; fill-opacity:0; stroke-width: 2; stroke: #000000" x1="129.983" y1="87.2644" x2="427.264" y2="86.0401"/>
    <polygon style="fill: #000000" points="434.764,86.0092 424.785,91.0503 427.264,86.0401 424.743,81.0504 "/>
    <polygon style="fill: none; fill-opacity:0; stroke-width: 2; stroke: #000000" points="434.764,86.0092 424.785,91.0503 427.264,86.0401 424.743,81.0504 "/>
  </g>
  <g>
    <g>
      <rect style="fill: #ffffff" x="437" y="47" width="178" height="78"/>
      <rect style="fill: none; fill-opacity:0; stroke-width: 2; stroke: #000000" x="437" y="47" width="178" height="78"/>
    </g>
    <text font-size="12.7998" style="fill: #000000;text-anchor:start;font-family:sans-serif;font-style:normal;font-weight:normal" x="463" y="79">
      <tspan x="463" y="79">Rsync File Transfer</tspan>
    </text>
    <text font-size="12.7998" style="fill: #000000;text-anchor:start;font-family:sans-serif;font-style:normal;font-weight:normal" x="453" y="105">
      <tspan x="453" y="105">Server to Workstation</tspan>
    </text>
  </g>
  <g>
    <line style="fill: none; fill-opacity:0; stroke-width: 2; stroke-dasharray: 4; stroke: #000000" x1="526" y1="125" x2="526" y2="165.276"/>
    <polygon style="fill: #000000" points="526,172.776 521,162.776 526,165.276 531,162.776 "/>
    <polygon style="fill: none; fill-opacity:0; stroke-width: 2; stroke: #000000" points="526,172.776 521,162.776 526,165.276 531,162.776 "/>
  </g>
  <text font-size="12.7998" style="fill: #000000;text-anchor:start;font-family:sans-serif;font-style:normal;font-weight:normal" x="406" y="155">
    <tspan x="406" y="155">Task in progress</tspan>
  </text>
  <g>
    <g>
      <ellipse style="fill: #ffffff" cx="526" cy="207.5" rx="74" ry="31.5"/>
      <ellipse style="fill: none; fill-opacity:0; stroke-width: 2; stroke: #000000" cx="526" cy="207.5" rx="74" ry="31.5"/>
    </g>
    <text font-size="12.7998" style="fill: #000000;text-anchor:start;font-family:sans-serif;font-style:normal;font-weight:normal" x="476" y="203.5">
      <tspan x="476" y="203.5">User Indicates </tspan>
      <tspan x="476" y="219.5">Task completion</tspan>
    </text>
  </g>
  <g>
    <line style="fill: none; fill-opacity:0; stroke-width: 2; stroke: #000000" x1="451.009" y1="207.88" x2="231.735" y2="208.99"/>
    <polygon style="fill: #000000" points="224.235,209.028 234.21,203.977 231.735,208.99 234.26,213.977 "/>
    <polygon style="fill: none; fill-opacity:0; stroke-width: 2; stroke: #000000" points="224.235,209.028 234.21,203.977 231.735,208.99 234.26,213.977 "/>
  </g>
  <g>
    <g>
      <rect style="fill: #ffffff" x="41" y="170" width="180" height="79"/>
      <rect style="fill: none; fill-opacity:0; stroke-width: 2; stroke: #000000" x="41" y="170" width="180" height="79"/>
    </g>
    <text font-size="12.7998" style="fill: #000000;text-anchor:start;font-family:sans-serif;font-style:normal;font-weight:normal" x="69" y="201.5">
      <tspan x="69" y="201.5">Rsync File Transfer</tspan>
    </text>
    <text font-size="12.7998" style="fill: #000000;text-anchor:start;font-family:sans-serif;font-style:normal;font-weight:normal" x="56" y="228">
      <tspan x="56" y="228">Workstation to Server</tspan>
    </text>
  </g>
  <g>
    <line style="fill: none; fill-opacity:0; stroke-width: 2; stroke-dasharray: 4; stroke: #000000" x1="130.194" y1="249.975" x2="129.172" y2="301.267"/>
    <polygon style="fill: #000000" points="129.023,308.766 124.223,298.668 129.172,301.267 134.221,298.867 "/>
    <polygon style="fill: none; fill-opacity:0; stroke-width: 2; stroke: #000000" points="129.023,308.766 124.223,298.668 129.172,301.267 134.221,298.867 "/>
  </g>
  <text font-size="12.7998" style="fill: #000000;text-anchor:start;font-family:sans-serif;font-style:normal;font-weight:normal" x="154" y="272">
    <tspan x="154" y="272">Await Task verification:</tspan>
    <tspan x="154" y="288">During this step files can again be downloaded and uploaded</tspan>
  </text>
  <g>
    <g>
      <ellipse style="fill: #ffffff" cx="128.5" cy="335" rx="58.5" ry="23"/>
      <ellipse style="fill: none; fill-opacity:0; stroke-width: 2; stroke: #000000" cx="128.5" cy="335" rx="58.5" ry="23"/>
    </g>
    <text font-size="12.7998" style="fill: #000000;text-anchor:start;font-family:sans-serif;font-style:normal;font-weight:normal" x="111.5" y="340">
      <tspan x="111.5" y="340">Verify</tspan>
    </text>
  </g>
  <g>
    <polyline style="fill: none; fill-opacity:0; stroke-width: 2; stroke: #000000" points="68.9998,335 27.9791,335 27.9791,151 382.243,151 "/>
    <polygon style="fill: #000000" points="389.743,151 379.743,156 382.243,151 379.743,146 "/>
    <polygon style="fill: none; fill-opacity:0; stroke-width: 2; stroke: #000000" points="389.743,151 379.743,156 382.243,151 379.743,146 "/>
  </g>
  <text font-size="12.7998" style="fill: #000000;text-anchor:start;font-family:sans-serif;font-style:normal;font-weight:normal" x="109.979" y="140">
    <tspan x="109.979" y="140">Changes Required</tspan>
  </text>
  <g>
    <g>
      <ellipse style="fill: #ffffff" cx="524.002" cy="333" rx="74" ry="22"/>
      <ellipse style="fill: none; fill-opacity:0; stroke-width: 2; stroke: #000000" cx="524.002" cy="333" rx="74" ry="22"/>
    </g>
    <text font-size="12.7998" style="fill: #000000;text-anchor:start;font-family:sans-serif;font-style:normal;font-weight:normal" x="475.002" y="333">
      <tspan x="475.002" y="333">Signal successor </tspan>
      <tspan x="475.002" y="349">        tasks</tspan>
    </text>
  </g>
  <g>
    <line style="fill: none; fill-opacity:0; stroke-width: 2; stroke: #000000" x1="187.992" y1="334.699" x2="439.277" y2="333.428"/>
    <polygon style="fill: #000000" points="446.777,333.391 436.802,338.441 439.277,333.428 436.751,328.441 "/>
    <polygon style="fill: none; fill-opacity:0; stroke-width: 2; stroke: #000000" points="446.777,333.391 436.802,338.441 439.277,333.428 436.751,328.441 "/>
  </g>
</svg>
